<svg width="30" height="30" viewBox="0 0 30 30" fill="none" xmlns="http://www.w3.org/2000/svg">
<path d="M24.1465 20.5048C23.4132 19.7709 22.5564 19.1719 21.6152 18.7353C22.9424 17.6601 23.7891 16.0195 23.7891 14.1796C23.7891 10.9335 21.082 8.27046 17.8359 8.32027C14.6397 8.37007 12.0645 10.9746 12.0645 14.1796C12.0645 16.0195 12.9141 17.6601 14.2383 18.7353C13.297 19.1716 12.4401 19.7707 11.707 20.5048C10.1074 22.1074 9.19923 24.2226 9.14064 26.4785C9.13986 26.5097 9.14534 26.5408 9.15677 26.57C9.1682 26.5991 9.18534 26.6256 9.20718 26.648C9.22902 26.6704 9.25512 26.6882 9.28395 26.7003C9.31277 26.7125 9.34373 26.7187 9.37501 26.7187H11.0156C11.1416 26.7187 11.2471 26.6191 11.25 26.4931C11.3057 24.7939 11.9942 23.2031 13.2041 21.996C13.8233 21.3736 14.5597 20.8801 15.3709 20.5442C16.182 20.2083 17.0517 20.0366 17.9297 20.039C19.7139 20.039 21.3926 20.7334 22.6553 21.996C23.8623 23.2031 24.5508 24.7939 24.6094 26.4931C24.6123 26.6191 24.7178 26.7187 24.8438 26.7187H26.4844C26.5157 26.7187 26.5466 26.7125 26.5755 26.7003C26.6043 26.6882 26.6304 26.6704 26.6522 26.648C26.6741 26.6256 26.6912 26.5991 26.7026 26.57C26.7141 26.5408 26.7195 26.5097 26.7188 26.4785C26.6602 24.2226 25.752 22.1074 24.1465 20.5048ZM17.9297 17.9296C16.9277 17.9296 15.9844 17.54 15.2783 16.831C14.924 16.4795 14.6441 16.0601 14.4553 15.5981C14.2666 15.136 14.1728 14.6406 14.1797 14.1416C14.1885 13.1806 14.5723 12.2519 15.2432 11.5634C15.9463 10.8427 16.8867 10.4414 17.8916 10.4296C18.8848 10.4209 19.8486 10.8076 20.5576 11.5019C21.2842 12.2138 21.6826 13.166 21.6826 14.1796C21.6826 15.1816 21.293 16.122 20.584 16.831C20.2362 17.1805 19.8225 17.4576 19.3669 17.6461C18.9113 17.8347 18.4228 17.9311 17.9297 17.9296ZM10.5908 14.9531C10.5645 14.6982 10.5498 14.4404 10.5498 14.1796C10.5498 13.7138 10.5938 13.2597 10.6758 12.8173C10.6963 12.7119 10.6406 12.6035 10.544 12.5595C10.1455 12.3808 9.77931 12.1347 9.4629 11.8242C9.09007 11.4627 8.79669 11.0274 8.60147 10.5462C8.40626 10.065 8.3135 9.54833 8.32911 9.02925C8.35548 8.08882 8.73341 7.19527 9.39259 6.52144C10.1162 5.78023 11.0889 5.37593 12.1231 5.38765C13.0576 5.39644 13.96 5.75679 14.6426 6.39546C14.874 6.61226 15.0733 6.85249 15.2402 7.11031C15.2988 7.20113 15.4131 7.23921 15.5127 7.20406C16.0283 7.02535 16.5733 6.89937 17.1328 6.84078C17.2969 6.8232 17.3906 6.64742 17.3174 6.50093C16.3652 4.61714 14.4199 3.31636 12.1699 3.2812C8.92091 3.2314 6.21388 5.89449 6.21388 9.13765C6.21388 10.9775 7.06056 12.6181 8.38771 13.6933C7.45607 14.124 6.59767 14.7187 5.85353 15.4628C4.24806 17.0654 3.33986 19.1806 3.28126 21.4394C3.28048 21.4707 3.28596 21.5018 3.29739 21.5309C3.30882 21.56 3.32596 21.5865 3.3478 21.6089C3.36964 21.6313 3.39575 21.6491 3.42457 21.6613C3.4534 21.6734 3.48436 21.6797 3.51564 21.6796H5.15919C5.28517 21.6796 5.39064 21.58 5.39357 21.4541C5.44923 19.7548 6.13771 18.164 7.34767 16.957C8.209 16.0957 9.26368 15.498 10.4151 15.208C10.5293 15.1787 10.6055 15.0703 10.5908 14.9531Z" fill="#D33829"/>
</svg>
