<svg width="26" height="26" viewBox="0 0 26 26" fill="none" xmlns="http://www.w3.org/2000/svg">
<path d="M8.45002 2.16666H17.55C21.0167 2.16666 23.8334 4.98332 23.8334 8.44999V17.55C23.8334 19.2164 23.1714 20.8146 21.993 21.993C20.8147 23.1713 19.2165 23.8333 17.55 23.8333H8.45002C4.98335 23.8333 2.16669 21.0167 2.16669 17.55V8.44999C2.16669 6.78355 2.82868 5.18536 4.00703 4.007C5.18539 2.82865 6.78358 2.16666 8.45002 2.16666ZM8.23335 4.33332C7.19901 4.33332 6.20703 4.74421 5.47564 5.47561C4.74425 6.207 4.33335 7.19898 4.33335 8.23332V17.7667C4.33335 19.9225 6.07752 21.6667 8.23335 21.6667H17.7667C18.801 21.6667 19.793 21.2558 20.5244 20.5244C21.2558 19.793 21.6667 18.801 21.6667 17.7667V8.23332C21.6667 6.07749 19.9225 4.33332 17.7667 4.33332H8.23335ZM18.6875 5.95832C19.0467 5.95832 19.3911 6.10099 19.6451 6.35495C19.899 6.6089 20.0417 6.95334 20.0417 7.31249C20.0417 7.67164 19.899 8.01607 19.6451 8.27003C19.3911 8.52399 19.0467 8.66666 18.6875 8.66666C18.3284 8.66666 17.9839 8.52399 17.73 8.27003C17.476 8.01607 17.3334 7.67164 17.3334 7.31249C17.3334 6.95334 17.476 6.6089 17.73 6.35495C17.9839 6.10099 18.3284 5.95832 18.6875 5.95832ZM13 7.58332C14.4366 7.58332 15.8144 8.15401 16.8302 9.16983C17.846 10.1856 18.4167 11.5634 18.4167 13C18.4167 14.4366 17.846 15.8143 16.8302 16.8302C15.8144 17.846 14.4366 18.4167 13 18.4167C11.5634 18.4167 10.1857 17.846 9.16986 16.8302C8.15404 15.8143 7.58335 14.4366 7.58335 13C7.58335 11.5634 8.15404 10.1856 9.16986 9.16983C10.1857 8.15401 11.5634 7.58332 13 7.58332ZM13 9.74999C12.1381 9.74999 11.3114 10.0924 10.7019 10.7019C10.0924 11.3114 9.75002 12.138 9.75002 13C9.75002 13.8619 10.0924 14.6886 10.7019 15.2981C11.3114 15.9076 12.1381 16.25 13 16.25C13.862 16.25 14.6886 15.9076 15.2981 15.2981C15.9076 14.6886 16.25 13.8619 16.25 13C16.25 12.138 15.9076 11.3114 15.2981 10.7019C14.6886 10.0924 13.862 9.74999 13 9.74999Z" fill="#7A7A7A"/>
</svg>
