<svg width="26" height="26" viewBox="0 0 26 26" fill="none" xmlns="http://www.w3.org/2000/svg">
<path d="M17.3333 8.66666C19.0572 8.66666 20.7105 9.35148 21.9295 10.5705C23.1485 11.7894 23.8333 13.4427 23.8333 15.1667V22.75H19.5V15.1667C19.5 14.592 19.2717 14.0409 18.8654 13.6346C18.459 13.2283 17.9079 13 17.3333 13C16.7587 13 16.2076 13.2283 15.8012 13.6346C15.3949 14.0409 15.1666 14.592 15.1666 15.1667V22.75H10.8333V15.1667C10.8333 13.4427 11.5181 11.7894 12.7371 10.5705C13.9561 9.35148 15.6094 8.66666 17.3333 8.66666Z" fill="#7A7A7A"/>
<path d="M6.50002 9.75H2.16669V22.75H6.50002V9.75Z" fill="#7A7A7A"/>
<path d="M4.33335 6.49999C5.52997 6.49999 6.50002 5.52994 6.50002 4.33332C6.50002 3.13671 5.52997 2.16666 4.33335 2.16666C3.13674 2.16666 2.16669 3.13671 2.16669 4.33332C2.16669 5.52994 3.13674 6.49999 4.33335 6.49999Z" fill="#7A7A7A"/>
</svg>
