<svg width="26" height="26" viewBox="0 0 26 26" fill="none" xmlns="http://www.w3.org/2000/svg">
<path d="M13 2.16666C7.02002 2.16666 2.16669 7.01999 2.16669 13C2.16669 18.98 7.02002 23.8333 13 23.8333C18.98 23.8333 23.8334 18.98 23.8334 13C23.8334 7.01999 18.98 2.16666 13 2.16666ZM18.0267 9.53332C17.8642 11.245 17.16 15.405 16.8025 17.3225C16.6509 18.135 16.3475 18.4058 16.0659 18.4383C15.4375 18.4925 14.9609 18.0267 14.3542 17.6258C13.4009 16.9975 12.8592 16.6075 11.9384 16.0008C10.8659 15.2967 11.5592 14.9067 12.1767 14.2783C12.3392 14.1158 15.1125 11.5917 15.1667 11.3642C15.1742 11.3297 15.1732 11.2939 15.1638 11.2599C15.1543 11.226 15.1367 11.1948 15.1125 11.1692C15.0475 11.115 14.9609 11.1367 14.885 11.1475C14.7875 11.1692 13.2709 12.1767 10.3134 14.17C9.88002 14.4625 9.49002 14.6142 9.14335 14.6033C8.75335 14.5925 8.01669 14.3867 7.46419 14.2025C6.78169 13.9858 6.25085 13.8667 6.29419 13.4875C6.31585 13.2925 6.58669 13.0975 7.09585 12.8917C10.2592 11.5158 12.3609 10.6058 13.4117 10.1725C16.4234 8.91582 17.0409 8.69916 17.4525 8.69916C17.5392 8.69916 17.745 8.72082 17.875 8.82916C17.9834 8.91582 18.0159 9.03499 18.0267 9.12166C18.0159 9.18666 18.0375 9.38166 18.0267 9.53332Z" fill="#7A7A7A"/>
</svg>
