<svg width="26" height="26" viewBox="0 0 26 26" fill="none" xmlns="http://www.w3.org/2000/svg">
<mask id="mask0_27_23" style="mask-type:luminance" maskUnits="userSpaceOnUse" x="2" y="2" width="22" height="22">
<path d="M23.7773 2H2.1073V23.67H23.7773V2Z" fill="white"/>
</mask>
<g mask="url(#mask0_27_23)">
<path fill-rule="evenodd" clip-rule="evenodd" d="M3.63058 3.52328C2.1073 5.04656 2.1073 7.49824 2.1073 12.4016V13.2684C2.1073 18.1718 2.1073 20.6234 3.63058 22.1467C5.15386 23.67 7.60554 23.67 12.5089 23.67H13.3757C18.2791 23.67 20.7307 23.67 22.254 22.1467C23.7773 20.6234 23.7773 18.1718 23.7773 13.2684V12.4016C23.7773 7.49824 23.7773 5.04656 22.254 3.52328C20.7307 2 18.2791 2 13.3757 2H12.5089C7.60554 2 5.15386 2 3.63058 3.52328ZM5.76416 8.59134C5.88152 14.2255 8.6986 17.6115 13.6376 17.6115H13.9175V14.388C15.7324 14.5686 17.1047 15.8959 17.6555 17.6115H20.2198C19.5156 15.0472 17.6645 13.6296 16.5088 13.0878C17.6645 12.4197 19.2898 10.7944 19.678 8.59134H17.3484C16.8428 10.3791 15.3441 12.0043 13.9175 12.1578V8.59134H11.5879V14.8395C10.1433 14.4783 8.3194 12.7267 8.23813 8.59134H5.76416Z" fill="#7A7A7A"/>
</g>
</svg>
