<svg width="26" height="26" viewBox="0 0 26 26" fill="none" xmlns="http://www.w3.org/2000/svg">
<path d="M13 2.16666C11.5774 2.16666 10.1686 2.44687 8.85428 2.9913C7.53992 3.53572 6.34566 4.3337 5.3397 5.33967C3.30805 7.37131 2.16669 10.1268 2.16669 13C2.16669 17.7883 5.27585 21.8508 9.57669 23.2917C10.1184 23.3783 10.2917 23.0425 10.2917 22.75V20.9192C7.29085 21.5692 6.65169 19.4675 6.65169 19.4675C6.15335 18.2108 5.44919 17.875 5.44919 17.875C4.46335 17.2033 5.52502 17.225 5.52502 17.225C6.60835 17.3008 7.18252 18.3408 7.18252 18.3408C8.12502 19.9875 9.71752 19.5 10.335 19.24C10.4325 18.5358 10.7142 18.0592 11.0175 17.7883C8.61252 17.5175 6.08835 16.5858 6.08835 12.4583C6.08835 11.2558 6.50002 10.2917 7.20419 9.52249C7.09585 9.25166 6.71669 8.12499 7.31252 6.66249C7.31252 6.66249 8.22252 6.36999 10.2917 7.76749C11.1475 7.52916 12.0792 7.40999 13 7.40999C13.9209 7.40999 14.8525 7.52916 15.7084 7.76749C17.7775 6.36999 18.6875 6.66249 18.6875 6.66249C19.2834 8.12499 18.9042 9.25166 18.7959 9.52249C19.5 10.2917 19.9117 11.2558 19.9117 12.4583C19.9117 16.5967 17.3767 17.5067 14.9609 17.7775C15.3509 18.1133 15.7084 18.7742 15.7084 19.7817V22.75C15.7084 23.0425 15.8817 23.3892 16.4342 23.2917C20.735 21.84 23.8334 17.7883 23.8334 13C23.8334 11.5773 23.5531 10.1686 23.0087 8.85425C22.4643 7.53989 21.6663 6.34563 20.6603 5.33967C19.6544 4.3337 18.4601 3.53572 17.1458 2.9913C15.8314 2.44687 14.4227 2.16666 13 2.16666Z" fill="#7A7A7A"/>
</svg>
