<svg width="30" height="30" viewBox="0 0 30 30" fill="none" xmlns="http://www.w3.org/2000/svg">
<path d="M21.2883 17.1492C21.3754 17.2363 21.4446 17.3397 21.4918 17.4535C21.539 17.5673 21.5632 17.6893 21.5632 17.8125C21.5632 17.9357 21.539 18.0577 21.4918 18.1715C21.4446 18.2853 21.3754 18.3887 21.2883 18.4758L18.4758 21.2883C18.2999 21.4642 18.0613 21.563 17.8125 21.563C17.5637 21.563 17.3251 21.4642 17.1492 21.2883C16.9733 21.1124 16.8745 20.8738 16.8745 20.625C16.8745 20.3762 16.9733 20.1376 17.1492 19.9617L19.2996 17.8125L17.1492 15.6633C16.9733 15.4874 16.8745 15.2488 16.8745 15C16.8745 14.7512 16.9733 14.5126 17.1492 14.3367C17.3251 14.1608 17.5637 14.062 17.8125 14.062C18.0613 14.062 18.2999 14.1608 18.4758 14.3367L21.2883 17.1492ZM12.8508 14.3367C12.7637 14.2496 12.6603 14.1804 12.5465 14.1332C12.4327 14.086 12.3107 14.0618 12.1875 14.0618C12.0643 14.0618 11.9423 14.086 11.8285 14.1332C11.7147 14.1804 11.6113 14.2496 11.5242 14.3367L8.71172 17.1492C8.62455 17.2363 8.5554 17.3397 8.50823 17.4535C8.46105 17.5673 8.43676 17.6893 8.43676 17.8125C8.43676 17.9357 8.46105 18.0577 8.50823 18.1715C8.5554 18.2853 8.62455 18.3887 8.71172 18.4758L11.5242 21.2883C11.6113 21.3754 11.7147 21.4445 11.8285 21.4916C11.9423 21.5388 12.0643 21.563 12.1875 21.563C12.3107 21.563 12.4327 21.5388 12.5465 21.4916C12.6603 21.4445 12.7637 21.3754 12.8508 21.2883C12.9379 21.2012 13.007 21.0978 13.0541 20.984C13.1013 20.8702 13.1255 20.7482 13.1255 20.625C13.1255 20.5018 13.1013 20.3798 13.0541 20.266C13.007 20.1522 12.9379 20.0488 12.8508 19.9617L10.7004 17.8125L12.8508 15.6633C12.9379 15.5762 13.0071 15.4728 13.0543 15.359C13.1015 15.2452 13.1257 15.1232 13.1257 15C13.1257 14.8768 13.1015 14.7548 13.0543 14.641C13.0071 14.5272 12.9379 14.4238 12.8508 14.3367ZM25.3125 10.3125V25.3125C25.3125 25.8098 25.115 26.2867 24.7633 26.6383C24.4117 26.99 23.9348 27.1875 23.4375 27.1875H6.5625C6.06522 27.1875 5.58831 26.99 5.23667 26.6383C4.88504 26.2867 4.6875 25.8098 4.6875 25.3125V4.6875C4.6875 4.19022 4.88504 3.71331 5.23667 3.36167C5.58831 3.01004 6.06522 2.8125 6.5625 2.8125H17.8125C17.9357 2.8124 18.0576 2.83657 18.1714 2.88362C18.2852 2.93067 18.3887 2.99969 18.4758 3.08672L25.0383 9.64922C25.1253 9.73635 25.1943 9.83977 25.2414 9.95358C25.2884 10.0674 25.3126 10.1893 25.3125 10.3125ZM18.75 9.375H22.1121L18.75 6.01289V9.375ZM23.4375 25.3125V11.25H17.8125C17.5639 11.25 17.3254 11.1512 17.1496 10.9754C16.9738 10.7996 16.875 10.5611 16.875 10.3125V4.6875H6.5625V25.3125H23.4375Z" fill="#D33829"/>
</svg>
