<svg width="30" height="30" viewBox="0 0 30 30" fill="none" xmlns="http://www.w3.org/2000/svg">
<path fill-rule="evenodd" clip-rule="evenodd" d="M11.2362 6.63495C12.2643 4.462 14.1134 2.78643 16.3769 1.97686C18.6403 1.16729 21.1327 1.29003 23.3056 2.31807C25.4786 3.34612 27.1541 5.19526 27.9637 7.45871C28.7733 9.72215 28.6505 12.2145 27.6225 14.3874C27.485 14.6862 27.4587 14.9687 27.52 15.1962L27.6787 15.7912C28.1887 17.6962 26.4462 19.4387 24.5412 18.9287L23.9462 18.7699C23.7535 18.7236 23.5519 18.7301 23.3625 18.7887C23.1577 20.5155 22.5443 22.1686 21.5729 23.611C20.6016 25.0533 19.3004 26.2432 17.7772 27.0822C16.2541 27.9211 14.5528 28.3848 12.8147 28.4349C11.0765 28.4849 9.35139 28.1199 7.78249 27.3699C7.53917 27.2432 7.25864 27.2073 6.99124 27.2687L5.45874 27.6787C3.55374 28.1887 1.81124 26.4462 2.32124 24.5412L2.73124 23.0087C2.79253 22.7413 2.75664 22.4608 2.62999 22.2174C1.87926 20.6466 1.5143 18.9193 1.56545 17.1791C1.61661 15.4389 2.08239 13.736 2.9241 12.212C3.7658 10.688 4.95911 9.38694 6.40483 8.41693C7.85054 7.44692 9.50691 6.836 11.2362 6.63495ZM13.4187 6.59995C16.044 6.82148 18.5011 7.98304 20.3385 9.87117C22.1759 11.7593 23.2701 14.2471 23.42 16.8774C23.7588 16.844 24.1009 16.8715 24.43 16.9587L25.025 17.1174C25.1416 17.1488 25.2645 17.1489 25.3812 17.1177C25.4979 17.0865 25.6043 17.0251 25.6897 16.9397C25.7752 16.8543 25.8366 16.7479 25.8678 16.6312C25.899 16.5145 25.8989 16.3916 25.8675 16.275L25.7087 15.6799C25.5125 14.9462 25.64 14.2137 25.9162 13.6074C26.6693 11.9662 26.777 10.1017 26.2179 8.38465C25.6588 6.66763 24.4739 5.22398 22.8988 4.34083C21.3238 3.45768 19.474 3.19975 17.7174 3.61834C15.9609 4.03694 14.4262 5.10138 13.4187 6.59995ZM12.5 8.43745C10.9688 8.43712 9.46243 8.82478 8.12159 9.56424C6.78075 10.3037 5.64914 11.3708 4.8324 12.6661C4.01565 13.9613 3.5404 15.4423 3.45102 16.9709C3.36163 18.4995 3.66102 20.0259 4.32124 21.4074C4.6412 22.0538 4.71967 22.7933 4.54249 23.4924L4.13249 25.0249C4.10121 25.1415 4.10115 25.2642 4.13231 25.3807C4.16346 25.4973 4.22474 25.6036 4.30999 25.689C4.39524 25.7743 4.50145 25.8358 4.61796 25.8671C4.73447 25.8984 4.85717 25.8986 4.97374 25.8674L6.50749 25.4574C7.20665 25.2803 7.94609 25.3587 8.59249 25.6787C9.81983 26.2645 11.1633 26.5665 12.5232 26.5624C13.8832 26.5583 15.2248 26.2482 16.4485 25.6551C17.6723 25.0619 18.7469 24.201 19.5927 23.136C20.4385 22.071 21.0337 20.8294 21.3343 19.503C21.6349 18.1767 21.6331 16.7998 21.3291 15.4742C21.0252 14.1487 20.4267 12.9085 19.5782 11.8457C18.7297 10.7829 17.6529 9.92474 16.4276 9.33473C15.2023 8.74473 13.8599 8.43806 12.5 8.43745Z" fill="#D33829"/>
<path d="M9.375 17.5C9.375 17.8315 9.2433 18.1495 9.00888 18.3839C8.77446 18.6183 8.45652 18.75 8.125 18.75C7.79348 18.75 7.47554 18.6183 7.24112 18.3839C7.0067 18.1495 6.875 17.8315 6.875 17.5C6.875 17.1685 7.0067 16.8505 7.24112 16.6161C7.47554 16.3817 7.79348 16.25 8.125 16.25C8.45652 16.25 8.77446 16.3817 9.00888 16.6161C9.2433 16.8505 9.375 17.1685 9.375 17.5ZM13.75 17.5C13.75 17.8315 13.6183 18.1495 13.3839 18.3839C13.1495 18.6183 12.8315 18.75 12.5 18.75C12.1685 18.75 11.8505 18.6183 11.6161 18.3839C11.3817 18.1495 11.25 17.8315 11.25 17.5C11.25 17.1685 11.3817 16.8505 11.6161 16.6161C11.8505 16.3817 12.1685 16.25 12.5 16.25C12.8315 16.25 13.1495 16.3817 13.3839 16.6161C13.6183 16.8505 13.75 17.1685 13.75 17.5ZM18.125 17.5C18.125 17.8315 17.9933 18.1495 17.7589 18.3839C17.5245 18.6183 17.2065 18.75 16.875 18.75C16.5435 18.75 16.2255 18.6183 15.9911 18.3839C15.7567 18.1495 15.625 17.8315 15.625 17.5C15.625 17.1685 15.7567 16.8505 15.9911 16.6161C16.2255 16.3817 16.5435 16.25 16.875 16.25C17.2065 16.25 17.5245 16.3817 17.7589 16.6161C17.9933 16.8505 18.125 17.1685 18.125 17.5Z" fill="#D33829"/>
</svg>
