<svg width="30" height="30" viewBox="0 0 30 30" fill="none" xmlns="http://www.w3.org/2000/svg">
<path d="M10.3125 22.5H19.6875V24.375H10.3125V22.5ZM12.1875 26.25H17.8125V28.125H12.1875V26.25ZM15 1.875C12.5136 1.875 10.129 2.86272 8.37088 4.62087C6.61273 6.37903 5.62501 8.7636 5.62501 11.25C5.56161 12.6125 5.82261 13.9706 6.38653 15.2125C6.95046 16.4545 7.8012 17.5448 8.86876 18.3938C9.80626 19.2656 10.3125 19.7625 10.3125 20.625H12.1875C12.1875 18.9 11.1469 17.9344 10.1344 17.0062C9.25815 16.3352 8.55982 15.4596 8.10055 14.4561C7.64128 13.4526 7.43507 12.3517 7.50001 11.25C7.50001 9.26088 8.29018 7.35322 9.6967 5.9467C11.1032 4.54018 13.0109 3.75 15 3.75C16.9891 3.75 18.8968 4.54018 20.3033 5.9467C21.7098 7.35322 22.5 9.26088 22.5 11.25C22.5639 12.3525 22.3562 13.4539 21.8953 14.4575C21.4343 15.4611 20.7342 16.3363 19.8563 17.0062C18.8531 17.9437 17.8125 18.8812 17.8125 20.625H19.6875C19.6875 19.7625 20.1844 19.2656 21.1313 18.3844C22.1981 17.5369 23.0484 16.4482 23.6123 15.2078C24.1763 13.9675 24.4377 12.6111 24.375 11.25C24.375 10.0189 24.1325 8.79977 23.6614 7.66234C23.1902 6.52492 22.4997 5.49142 21.6291 4.62087C20.7586 3.75032 19.7251 3.05977 18.5877 2.58863C17.4502 2.11749 16.2311 1.875 15 1.875Z" fill="#D33829"/>
</svg>
